<svg xmlns="http://www.w3.org/2000/svg" viewBox="0 0 512 512">
  <defs>
    <linearGradient id="grad1" x1="0%" y1="100%" x2="100%" y2="0%">
      <stop offset="0%" style="stop-color:#0055ff;stop-opacity:1" />
      <stop offset="50%" style="stop-color:#00ccaa;stop-opacity:1" />
      <stop offset="100%" style="stop-color:#fcee21;stop-opacity:1" />
    </linearGradient>
  </defs>
  
  <!-- Main Building Group -->
  <g fill="none" stroke="url(#grad1)" stroke-width="35" stroke-linecap="round" stroke-linejoin="round">
    <!-- Roof / Outline -->
    <path d="M256 60 L100 140 V450 H412 V140 Z" stroke-width="0" fill="none" /> 
    
    <!-- P (Left) -->
    <path d="M130 450 V160 L200 120" />
    <path d="M130 250 H200 V160" /> 
    <path d="M200 250 V330" /> <!-- P Leg -->
    
    <!-- W (Middle) -->
    <path d="M256 100 V450" />
    <path d="M256 220 L210 260 V450" />
    <path d="M256 220 L302 260 V450" />

    <!-- A (Right) -->
    <path d="M382 450 V160 L312 120" />
    <path d="M382 250 H312" />
    <path d="M312 250 V450" />
    
    <!-- Outer connection (Roof lines) -->
    <path d="M130 160 L256 90 L382 160" stroke-width="35"/>
  </g>
  
  <!-- Fill opacity elements for depth -->
  <path d="M130 450 V160 L256 90 L382 160 V450 H130 Z" fill="url(#grad1)" fill-opacity="0.1" />
  
</svg>
